<svg width="160" height="160" viewBox="0 0 160 160" fill="none" xmlns="http://www.w3.org/2000/svg">
<rect width="160" height="160" rx="20" fill="#0277B5"/>
<path d="M59.8713 59.7794C71.9126 47.7382 85.137 39.4043 96.6526 35.5658C108.39 31.6533 117.235 32.7036 121.964 37.4323C126.693 42.161 127.742 51.0057 123.83 62.7431C119.991 74.2587 111.658 87.4839 99.6171 99.5251C87.5757 111.566 74.3501 119.9 62.8344 123.739C51.097 127.651 42.2523 126.601 37.5236 121.873C32.7949 117.144 31.7446 108.299 35.6571 96.5614C39.4956 85.0457 47.83 71.8207 59.8713 59.7794Z" stroke="white" stroke-width="7"/>
<path d="M99.6879 60.3126C111.768 72.3931 120.129 85.6612 123.98 97.2154C127.906 108.992 126.854 117.87 122.106 122.619C117.358 127.367 108.479 128.418 96.7027 124.493C85.1486 120.641 71.8803 112.281 59.7999 100.201C47.7193 88.12 39.3584 74.8513 35.5069 63.2971C31.5815 51.5208 32.6328 42.6421 37.381 37.8937C42.1293 33.1454 51.008 32.0941 62.7844 36.0196C74.3387 39.871 87.6073 48.2319 99.6879 60.3126Z" stroke="white" stroke-width="7"/>
<circle cx="80.5" cy="80.5" r="9.5" fill="white"/>
</svg>
